<svg width="50" height="50" viewBox="0 0 50 50" fill="none" xmlns="http://www.w3.org/2000/svg">
<circle cx="25" cy="25" r="25" fill="#4545A5"/>
<path fill-rule="evenodd" clip-rule="evenodd" d="M34.1231 16.2774C34.2303 16.3847 34.3025 16.522 34.33 16.6711C34.3576 16.8203 34.3393 16.9743 34.2776 17.1129L25.7921 36.2049C25.7328 36.3384 25.6358 36.4517 25.513 36.5309C25.3902 36.61 25.247 36.6516 25.1009 36.6505C24.9548 36.6494 24.8122 36.6056 24.6906 36.5246C24.5691 36.4436 24.4738 36.3288 24.4166 36.1944L21.3551 29.0454L14.2046 25.9824C14.0707 25.9248 13.9564 25.8294 13.8759 25.7079C13.7953 25.5864 13.7519 25.4441 13.7509 25.2983C13.75 25.1525 13.7915 25.0096 13.8705 24.8871C13.9495 24.7646 14.0624 24.6677 14.1956 24.6084L33.2876 16.1229C33.4259 16.0614 33.5797 16.0433 33.7285 16.0709C33.8774 16.0985 34.0144 16.1705 34.1216 16.2774H34.1231ZM16.3751 25.2804L22.2206 27.7854C22.3973 27.8616 22.5381 28.0028 22.6136 28.1799L25.1186 34.0254L32.1146 18.2844L16.3751 25.2804Z" fill="white"/>
</svg>
